<?xml version="1.0" encoding="utf-8"?>
<!-- Generator: Adobe Illustrator 16.0.0, SVG Export Plug-In . SVG Version: 6.00 Build 0)  -->
<!DOCTYPE svg PUBLIC "-//W3C//DTD SVG 1.1//EN" "http://www.w3.org/Graphics/SVG/1.1/DTD/svg11.dtd">
<svg version="1.1" id="Layer_1" xmlns="http://www.w3.org/2000/svg" xmlns:xlink="http://www.w3.org/1999/xlink" x="0px" y="0px"
	 width="600px" height="200px" viewBox="0 0 600 200" enable-background="new 0 0 600 200" xml:space="preserve">
<g>
	<rect x="290.712" y="63.435" width="18.443" height="11.439"/>
	<rect x="290.712" y="77.65" width="18.443" height="8.736"/>
	<rect x="290.712" y="89.842" width="18.443" height="37.985"/>
	<rect x="310.941" y="77.65" width="14.085" height="8.736"/>
	<rect x="310.941" y="89.842" width="14.085" height="6.885"/>
	<rect x="310.941" y="99.965" width="14.085" height="27.859"/>
	<rect x="327.126" y="86.387" width="11.735" height="6.942"/>
	<rect x="327.126" y="96.208" width="11.735" height="5.736"/>
	<rect x="327.126" y="104.924" width="11.735" height="23.209"/>
	<rect x="261.139" y="86.387" width="11.735" height="6.942"/>
	<rect x="261.139" y="96.208" width="11.735" height="5.736"/>
	<rect x="261.139" y="104.924" width="11.735" height="23.209"/>
	<rect x="274.835" y="77.65" width="14.088" height="8.736"/>
	<rect x="274.835" y="89.842" width="14.088" height="6.885"/>
	<rect x="274.835" y="100.3" width="14.088" height="27.86"/>
	<g>
		<path fill-rule="evenodd" clip-rule="evenodd" d="M300.354,53.423c0-1.926-0.025-4.146,0.039-6.362
			c0.008-0.268,0.526-0.752,0.799-0.743c1.177,0.027,2.362,0.127,3.522,0.34c1.05,0.193,2.053,0.692,3.103,0.82
			c1.224,0.145,2.479,0.034,3.952,0.034c0,0.374,0.004,1.101,0,1.827c0,1.194,0,2.388,0,3.58c0.004,1.63-0.294,2.131-1.955,2.102
			c-1.518-0.027-3.025-0.508-4.541-0.773C303.729,53.979,302.182,53.73,300.354,53.423z"/>
		<path fill-rule="evenodd" clip-rule="evenodd" d="M298.971,55.966c0-2.866,0.009-5.73-0.011-8.595
			c-0.002-0.504-0.174-1.007-0.185-1.513c-0.011-0.357,0.023-0.812,0.235-1.05c0.145-0.159,0.771-0.148,0.925,0.021
			c0.206,0.228,0.233,0.682,0.219,1.037c-0.021,0.544-0.213,1.083-0.213,1.627c-0.013,5.769,0,11.54,0.003,17.309
			c0,0.318,0.062,0.659-0.032,0.947c-0.076,0.236-0.342,0.41-0.522,0.612c-0.139-0.204-0.387-0.401-0.394-0.607
			c-0.038-1.275-0.025-2.546-0.025-3.82C298.969,59.945,298.971,57.957,298.971,55.966z"/>
	</g>
	<line fill="none" stroke="#000000" stroke-miterlimit="10" x1="261.139" y1="94.667" x2="272.874" y2="94.667"/>
	<line fill="none" stroke="#000000" stroke-miterlimit="10" x1="261.139" y1="103.5" x2="272.874" y2="103.5"/>
	<line fill="none" stroke="#000000" stroke-miterlimit="10" x1="274.835" y1="88.083" x2="288.923" y2="88.083"/>
	<line fill="none" stroke="#000000" stroke-miterlimit="10" x1="274.835" y1="98.5" x2="288.923" y2="98.5"/>
	<line fill="none" stroke="#000000" stroke-miterlimit="10" x1="290.712" y1="88.083" x2="309.155" y2="88.083"/>
	<line fill="none" stroke="#000000" stroke-miterlimit="10" x1="290.712" y1="76.25" x2="309.155" y2="76.25"/>
	<line fill="none" stroke="#000000" stroke-miterlimit="10" x1="310.941" y1="88.083" x2="325.026" y2="88.083"/>
	<line fill="none" stroke="#000000" stroke-miterlimit="10" x1="310.941" y1="98.5" x2="325.026" y2="98.5"/>
	<line fill="none" stroke="#000000" stroke-miterlimit="10" x1="327.126" y1="94.667" x2="338.861" y2="94.667"/>
	<line fill="none" stroke="#000000" stroke-miterlimit="10" x1="327.126" y1="103.5" x2="338.861" y2="103.5"/>
</g>
<g>
</g>
<g>
</g>
<g>
</g>
<g>
</g>
<g>
</g>
<g>
</g>
</svg>
