<?xml version="1.0" encoding="utf-8"?>
<!-- Generator: Adobe Illustrator 16.0.0, SVG Export Plug-In . SVG Version: 6.00 Build 0)  -->
<!DOCTYPE svg PUBLIC "-//W3C//DTD SVG 1.1//EN" "http://www.w3.org/Graphics/SVG/1.1/DTD/svg11.dtd">
<svg version="1.1" id="Layer_1" xmlns="http://www.w3.org/2000/svg" xmlns:xlink="http://www.w3.org/1999/xlink" x="0px" y="0px"
	 width="3em" height="2em" viewBox="0 0 77.723 83.464" enable-background="new 0 0 77.723 83.464" xml:space="preserve">
<g>
	<rect fill="white" x="29.573" y="18.739" width="18.443" height="11.439"/>
	<rect fill="white" x="29.573" y="32.955" width="18.443" height="8.736"/>
	<rect fill="white" x="29.573" y="45.146" width="18.443" height="37.985"/>
	<rect fill="white" x="49.803" y="32.955" width="14.085" height="8.736"/>
	<rect fill="white" x="49.803" y="45.146" width="14.085" height="6.885"/>
	<rect fill="white" x="49.803" y="55.269" width="14.085" height="27.859"/>
	<rect fill="white" x="65.987" y="41.691" width="11.735" height="6.942"/>
	<rect fill="white" x="65.987" y="51.512" width="11.735" height="5.736"/>
	<rect fill="white" x="65.987" y="60.228" width="11.735" height="23.209"/>
	<rect fill="white" y="41.691" width="11.735" height="6.942"/>
	<rect fill="white" y="51.512" width="11.735" height="5.736"/>
	<rect fill="white" y="60.228" width="11.735" height="23.209"/>
	<rect fill="white" x="13.696" y="32.955" width="14.088" height="8.736"/>
	<rect fill="white" x="13.696" y="45.146" width="14.088" height="6.885"/>
	<rect fill="white" x="13.696" y="55.604" width="14.088" height="27.86"/>
	<g>
		<path fill="white" fill-rule="evenodd" clip-rule="evenodd" d="M39.215,8.727c0-1.926-0.025-4.146,0.039-6.362
			c0.008-0.268,0.526-0.752,0.799-0.743c1.177,0.027,2.362,0.127,3.522,0.34c1.05,0.193,2.053,0.692,3.103,0.82
			c1.224,0.145,2.479,0.034,3.952,0.034c0,0.374,0.004,1.101,0,1.827c0,1.194,0,2.388,0,3.58c0.004,1.63-0.294,2.131-1.955,2.102
			c-1.518-0.027-3.025-0.508-4.541-0.773C42.59,9.284,41.043,9.035,39.215,8.727z"/>
		<path fill="white" fill-rule="evenodd" clip-rule="evenodd" d="M37.832,11.27c0-2.866,0.009-5.73-0.011-8.595
			c-0.002-0.504-0.174-1.007-0.185-1.513c-0.011-0.357,0.023-0.812,0.235-1.05c0.145-0.159,0.771-0.148,0.925,0.021
			c0.206,0.228,0.233,0.682,0.219,1.037c-0.021,0.544-0.213,1.083-0.213,1.627c-0.013,5.769,0,11.54,0.003,17.309
			c0,0.318,0.062,0.659-0.032,0.947c-0.076,0.236-0.342,0.41-0.522,0.612c-0.139-0.204-0.387-0.401-0.394-0.607
			c-0.038-1.275-0.025-2.546-0.025-3.82C37.83,15.25,37.832,13.261,37.832,11.27z"/>
	</g>
	<line fill="none" stroke="#ffffff" stroke-miterlimit="10" x1="0" y1="49.971" x2="11.735" y2="49.971"/>
	<line fill="none" stroke="#ffffff" stroke-miterlimit="10" x1="0" y1="58.804" x2="11.735" y2="58.804"/>
	<line fill="none" stroke="#ffffff" stroke-miterlimit="10" x1="13.696" y1="43.387" x2="27.784" y2="43.387"/>
	<line fill="none" stroke="#ffffff" stroke-miterlimit="10" x1="13.696" y1="53.804" x2="27.784" y2="53.804"/>
	<line fill="none" stroke="#ffffff" stroke-miterlimit="10" x1="29.573" y1="43.387" x2="48.017" y2="43.387"/>
	<line fill="none" stroke="#ffffff" stroke-miterlimit="10" x1="29.573" y1="31.554" x2="48.017" y2="31.554"/>
	<line fill="none" stroke="#ffffff" stroke-miterlimit="10" x1="49.803" y1="43.387" x2="63.888" y2="43.387"/>
	<line fill="none" stroke="#ffffff" stroke-miterlimit="10" x1="49.803" y1="53.804" x2="63.888" y2="53.804"/>
	<line fill="none" stroke="#ffffff" stroke-miterlimit="10" x1="65.987" y1="49.971" x2="77.723" y2="49.971"/>
	<line fill="none" stroke="#ffffff" stroke-miterlimit="10" x1="65.987" y1="58.804" x2="77.723" y2="58.804"/>
</g>
<g>
</g>
<g>
</g>
<g>
</g>
<g>
</g>
<g>
</g>
<g>
</g>
</svg>
